# xmcd CD database file
#
# Track frame offsets:
#	150
#	26132
#	44957
#	66420
#	91250
#	114707
#	137202
#	160635
#	186595
#	203490
#	226332
#
# Disc length: 3339 seconds
#
# Revision: 8
# Processed by: cddbd v1.5PL3 Copyright (c) Steve Scherf et al.
# Submitted via: CDex 1.50beta9
#
DISCID=a10d090b
DTITLE=Tina - Colorado
DYEAR=1999
DGENRE=Blues
TTITLE0=I'll Be There (Album Version)
TTITLE1=I Can't Take It
TTITLE2=As A Singer PRELUDE Op.28 No.4
TTITLE3=Magic (Album Version)
TTITLE4=Flower
TTITLE5=Feeling Out!
TTITLE6=Stay For Me -忘れてあげない-
TTITLE7=Still
TTITLE8=L'Adieu
TTITLE9=Spend The Time
TTITLE10=There Must Be An Angel
EXTD=YEAR: 1999
EXTT0=
EXTT1=
EXTT2=
EXTT3=
EXTT4=
EXTT5=
EXTT6=
EXTT7=
EXTT8=
EXTT9=
EXTT10=
PLAYORDER=
